<svg xmlns='http://www.w3.org/2000/svg' class="pikchr" viewBox="0 0 715.565 287.28">
<path d="M2,102L117,102L117,12L2,12Z"  style="fill:none;stroke-width:1.4472;stroke:rgb(128,128,128);" />
<text x="5" y="27" text-anchor="start" fill="rgb(128,128,128)" dominant-baseline="central">{</text>
<text x="5" y="47" text-anchor="start" fill="rgb(128,128,128)" dominant-baseline="central">  meta: {},</text>
<text x="5" y="67" text-anchor="start" font-weight="bold" fill="rgb(128,128,128)" dominant-baseline="central">  in: &lt;any&gt;</text>
<text x="5" y="87" text-anchor="start" fill="rgb(128,128,128)" dominant-baseline="central">}</text>
<polygon points="261,57 250,61 250,53" style="fill:rgb(0,0,0)"/>
<path d="M117,57L256,57"  style="fill:none;stroke-width:2.16;stroke:rgb(0,0,0);" />
<text x="189" y="45" text-anchor="middle" fill="rgb(0,0,0)" dominant-baseline="central">(j)son (i)n</text>
<text x="189" y="69" text-anchor="middle" fill="rgb(0,0,0)" dominant-baseline="central"> </text>
<path d="M261,93L369,93L369,21L261,21Z"  style="fill:none;stroke-width:2.16;stroke:rgb(0,0,0);" />
<text x="315" y="57" text-anchor="middle" fill="rgb(0,0,0)" dominant-baseline="central">jijejo</text>
<polygon points="477,57 466,61 466,53" style="fill:rgb(0,0,0)"/>
<path d="M369,57L472,57"  style="fill:none;stroke-width:2.16;stroke:rgb(0,0,0);" />
<text x="423" y="45" text-anchor="middle" fill="rgb(0,0,0)" dominant-baseline="central">(j)son (o)ut</text>
<text x="423" y="69" text-anchor="middle" fill="rgb(0,0,0)" dominant-baseline="central"></text>
<path d="M477,113L713,113L713,2L477,2Z"  style="fill:none;stroke-width:1.4472;stroke:rgb(128,128,128);" />
<text x="481" y="17" text-anchor="start" fill="rgb(128,128,128)" dominant-baseline="central">{</text>
<text x="481" y="37" text-anchor="start" fill="rgb(128,128,128)" dominant-baseline="central">  meta: {},</text>
<text x="481" y="57" text-anchor="start" font-weight="bold" fill="rgb(128,128,128)" dominant-baseline="central">  isout: true, iserr: false,</text>
<text x="481" y="77" text-anchor="start" font-weight="bold" fill="rgb(128,128,128)" dominant-baseline="central">  out: &lt;any&gt;</text>
<text x="481" y="97" text-anchor="start" fill="rgb(128,128,128)" dominant-baseline="central">}</text>
<polygon points="315,144 311,132 320,132" style="fill:rgb(0,0,0)"/>
<path d="M315,93L315,138"  style="fill:none;stroke-width:2.16;stroke:rgb(0,0,0);" />
<text x="315" y="159" text-anchor="middle" fill="rgb(0,0,0)" dominant-baseline="central">(j)son (e)rr</text>
<path d="M198,285L433,285L433,174L198,174Z"  style="fill:none;stroke-width:1.4472;stroke:rgb(128,128,128);" />
<text x="201" y="189" text-anchor="start" fill="rgb(128,128,128)" dominant-baseline="central">{</text>
<text x="201" y="209" text-anchor="start" fill="rgb(128,128,128)" dominant-baseline="central">  meta: {},</text>
<text x="201" y="229" text-anchor="start" font-weight="bold" fill="rgb(128,128,128)" dominant-baseline="central">  iserr: true, isout: false,</text>
<text x="201" y="249" text-anchor="start" font-weight="bold" fill="rgb(128,128,128)" dominant-baseline="central">  err: &lt;any&gt;</text>
<text x="201" y="270" text-anchor="start" fill="rgb(128,128,128)" dominant-baseline="central">}</text>
<polygon points="261,93 250,97 250,89" style="fill:rgb(128,128,128)"/>
<path d="M256,93L211,93"  style="fill:none;stroke-width:2.16;stroke:rgb(128,128,128);" />
<text x="168" y="93" text-anchor="middle" fill="rgb(128,128,128)" dominant-baseline="central">adapters</text>
</svg>